<svg width="132" height="24" viewBox="0 0 132 24" fill="none" xmlns="http://www.w3.org/2000/svg">
<path d="M4.481 23C3.74633 23 3.07933 22.8163 2.48 22.449C1.88067 22.0817 1.39733 21.5983 1.03 20.999C0.662667 20.3997 0.479 19.7327 0.479 18.998V10.182C0.479 9.44733 0.662667 8.78033 1.03 8.181C1.39733 7.58167 1.88067 7.09833 2.48 6.731C3.07933 6.36367 3.74633 6.18 4.481 6.18H13.558C14.2927 6.18 14.9597 6.36367 15.559 6.731C16.1777 7.09833 16.661 7.58167 17.009 8.181C17.3763 8.78033 17.56 9.44733 17.56 10.182V16.504H4.278V18.853C4.278 18.9497 4.307 19.0367 4.365 19.114C4.44233 19.172 4.52933 19.201 4.626 19.201H17.56V23H4.481ZM4.278 13.082H13.761V10.327C13.761 10.2303 13.7223 10.153 13.645 10.095C13.587 10.0177 13.5097 9.979 13.413 9.979H4.626C4.52933 9.979 4.44233 10.0177 4.365 10.095C4.307 10.153 4.278 10.2303 4.278 10.327V13.082ZM23.9094 23C23.1747 23 22.5077 22.8163 21.9084 22.449C21.3091 22.0817 20.8257 21.5983 20.4584 20.999C20.0911 20.3997 19.9074 19.7327 19.9074 18.998V0.640999H23.7354V18.853C23.7354 18.9497 23.7644 19.0367 23.8224 19.114C23.8997 19.172 23.9867 19.201 24.0834 19.201H27.3024V23H23.9094ZM33.4244 23C32.6897 23 32.0227 22.8163 31.4234 22.449C30.824 22.0817 30.3407 21.5983 29.9734 20.999C29.606 20.3997 29.4224 19.7327 29.4224 18.998V10.182C29.4224 9.44733 29.606 8.78033 29.9734 8.181C30.3407 7.58167 30.824 7.09833 31.4234 6.731C32.0227 6.36367 32.6897 6.18 33.4244 6.18H42.5014C43.236 6.18 43.903 6.36367 44.5024 6.731C45.121 7.09833 45.6044 7.58167 45.9524 8.181C46.3197 8.78033 46.5034 9.44733 46.5034 10.182V16.504H33.2214V18.853C33.2214 18.9497 33.2504 19.0367 33.3084 19.114C33.3857 19.172 33.4727 19.201 33.5694 19.201H46.5034V23H33.4244ZM33.2214 13.082H42.7044V10.327C42.7044 10.2303 42.6657 10.153 42.5884 10.095C42.5304 10.0177 42.453 9.979 42.3564 9.979H33.5694C33.4727 9.979 33.3857 10.0177 33.3084 10.095C33.2504 10.153 33.2214 10.2303 33.2214 10.327V13.082ZM58.3863 23V6.18H79.2373C79.9913 6.18 80.668 6.36367 81.2673 6.731C81.8666 7.09833 82.3403 7.58167 82.6883 8.181C83.0556 8.78033 83.2393 9.44733 83.2393 10.182V23H79.4693V10.327C79.4693 10.2303 79.4306 10.153 79.3533 10.095C79.276 10.0177 79.189 9.979 79.0923 9.979H73.0893C72.9926 9.979 72.9056 10.0177 72.8283 10.095C72.7703 10.153 72.7413 10.2303 72.7413 10.327V23H68.9133V10.327C68.9133 10.2303 68.8746 10.153 68.7973 10.095C68.7393 10.0177 68.662 9.979 68.5653 9.979H62.5333C62.4366 9.979 62.3496 10.0177 62.2723 10.095C62.2143 10.153 62.1853 10.2303 62.1853 10.327V23H58.3863ZM90.0559 23C89.3212 23 88.6446 22.8163 88.0259 22.449C87.4266 22.0817 86.9432 21.5983 86.5759 20.999C86.2279 20.3997 86.0539 19.7327 86.0539 18.998V12.676H99.3359V10.327C99.3359 10.2303 99.2972 10.153 99.2199 10.095C99.1619 10.0177 99.0846 9.979 98.9879 9.979H86.0539V6.18H99.1329C99.8676 6.18 100.535 6.36367 101.134 6.731C101.753 7.09833 102.236 7.58167 102.584 8.181C102.951 8.78033 103.135 9.44733 103.135 10.182V23H90.0559ZM90.2009 19.201H99.3359V16.098H89.8529V18.853C89.8529 18.9497 89.8819 19.0367 89.9399 19.114C90.0172 19.172 90.1042 19.201 90.2009 19.201ZM105.595 23V10.182C105.595 9.44733 105.779 8.78033 106.146 8.181C106.513 7.58167 106.997 7.09833 107.596 6.731C108.215 6.36367 108.882 6.18 109.597 6.18H118.935V9.979H109.742C109.645 9.979 109.558 10.0177 109.481 10.095C109.423 10.153 109.394 10.2303 109.394 10.327V23H105.595ZM124.777 23C124.043 23 123.376 22.8163 122.776 22.449C122.177 22.0817 121.694 21.5983 121.326 20.999C120.959 20.3997 120.775 19.7327 120.775 18.998V1.018H124.574V6.18H131.128V9.979H124.574V18.853C124.574 18.9497 124.603 19.0367 124.661 19.114C124.739 19.172 124.826 19.201 124.922 19.201H131.128V23H124.777Z" fill="black"/>
<path d="M49.981 21.2261C49.981 20.9526 50.0356 20.6963 50.145 20.457C50.2612 20.2109 50.4253 19.999 50.6372 19.8213C50.8491 19.6367 51.1055 19.4932 51.4062 19.3906C51.707 19.2881 52.0454 19.2368 52.4214 19.2368C52.7974 19.2368 53.1357 19.2881 53.4365 19.3906C53.7373 19.4932 53.9902 19.6367 54.1953 19.8213C54.4072 19.999 54.5679 20.2109 54.6772 20.457C54.7935 20.6963 54.8516 20.9526 54.8516 21.2261C54.8516 21.4995 54.7935 21.7593 54.6772 22.0054C54.5679 22.2446 54.4072 22.4531 54.1953 22.6309C53.9902 22.8086 53.7373 22.9487 53.4365 23.0513C53.1357 23.1606 52.7974 23.2153 52.4214 23.2153C52.0454 23.2153 51.707 23.1606 51.4062 23.0513C51.1055 22.9487 50.8491 22.8086 50.6372 22.6309C50.4253 22.4531 50.2612 22.2446 50.145 22.0054C50.0356 21.7593 49.981 21.4995 49.981 21.2261Z" fill="#82CAFF"/>
</svg>
